<svg viewBox="0 0 200 200" xmlns="http://www.w3.org/2000/svg">
  <defs>
    <linearGradient id="purpleGradient" x1="0%" y1="0%" x2="100%" y2="100%">
      <stop offset="0%" style="stop-color:#8B4DAE;stop-opacity:1" />
      <stop offset="100%" style="stop-color:#6A1B9A;stop-opacity:1" />
    </linearGradient>
    <linearGradient id="orangeGradient" x1="0%" y1="0%" x2="100%" y2="100%">
      <stop offset="0%" style="stop-color:#FF7043;stop-opacity:1" />
      <stop offset="100%" style="stop-color:#E64A19;stop-opacity:1" />
    </linearGradient>
  </defs>

  <!-- Background -->
  <rect width="200" height="200" fill="#FFFFFF"/>

  <!-- Left face (Purple) -->
  <path d="M 60 40 Q 40 60 40 100 Q 40 140 60 160 L 100 160 L 100 40 Z"
        fill="url(#purpleGradient)"/>

  <!-- Right face (Orange) -->
  <path d="M 100 40 L 100 160 Q 120 140 140 100 Q 140 60 120 40 Z"
        fill="url(#orangeGradient)"/>

  <!-- Left eye -->
  <circle cx="65" cy="75" r="6" fill="#1A0033" opacity="0.7"/>
  <circle cx="65" cy="75" r="3" fill="#1A0033"/>

  <!-- Right eye -->
  <circle cx="125" cy="75" r="6" fill="#1A0033" opacity="0.7"/>
  <circle cx="125" cy="75" r="2.5" fill="#1A0033"/>

  <!-- Smiles -->
  <path d="M 70 110 Q 75 115 85 115" stroke="#1A0033" stroke-width="2.5" fill="none"
        stroke-linecap="round" opacity="0.6"/>
  <path d="M 115 110 Q 120 115 130 115" stroke="#1A0033" stroke-width="2.5" fill="none"
        stroke-linecap="round" opacity="0.8"/>

  <!-- Center line -->
  <line x1="100" y1="40" x2="100" y2="160" stroke="#1A0033" stroke-width="2" opacity="0.15"/>
</svg>
